<svg id="Layer_1" data-name="Layer 1" xmlns="http://www.w3.org/2000/svg" viewBox="0 0 37 24"><defs><style>.cls-1{fill:none;}.cls-2{fill:#437708;}</style></defs><title>uqlib_icon_247</title><path class="cls-1" d="M27,21H27a8.07,8.07,0,0,0,8.21-8.13,8.34,8.34,0,0,0-8.4-8.27c-4.6,0-8.4,4.4-8.4,8.4H27Z"/><path class="cls-2" d="M25.29,23.56a9.79,9.79,0,0,0,9.8-10A10,10,0,0,0,24.86,3.67C19.29,3.67,14.75,9,14.75,14H16.5c0-4,3.75-8.59,8.36-8.59a8.28,8.28,0,0,1,8.36,8.25c0,4.61-3.31,8.3-7.92,8.3"/><path class="cls-2" d="M24.86,14l-.13,0a.45.45,0,0,1-.32-.43V6.91a.45.45,0,0,1,.9,0v5.17l1.55-2.3a.45.45,0,0,1,.75.5L25.23,13.8A.45.45,0,0,1,24.86,14Z"/><path class="cls-2" d="M8.12,23.87H2.28V22.71L5,19.78a6.72,6.72,0,0,0,.84-1.08,1.73,1.73,0,0,0,.27-.88,1.3,1.3,0,0,0-.29-.89A1,1,0,0,0,5,16.6a1.11,1.11,0,0,0-.9.4,1.56,1.56,0,0,0-.33,1H2.11a2.79,2.79,0,0,1,.37-1.42,2.62,2.62,0,0,1,1.05-1,3.19,3.19,0,0,1,1.54-.37,3,3,0,0,1,2,.63,2.23,2.23,0,0,1,.73,1.78,2.87,2.87,0,0,1-.33,1.29,7.12,7.12,0,0,1-1.12,1.53l-1.94,2H8.12Z"/><path class="cls-2" d="M13.37,20.66h1V22h-1v1.84H11.68V22H8.19L8.11,21l3.55-5.61h1.71Zm-3.57,0h1.88v-3l-.11.19Z"/><path class="cls-2" d="M15.32,24H14.24l2.69-8.65H18Z"/><path class="cls-2" d="M24.52,16.3l-3.29,7.57H19.45l3.3-7.15H18.51V15.35h6Z"/></svg>