<svg id="Layer_1" data-name="Layer 1" xmlns="http://www.w3.org/2000/svg" viewBox="0 0 24 24"><defs><style>.cls-1{fill:#828282;}</style></defs><title>uqlib_icon_info</title><path class="cls-1" d="M12,24A10.21,10.21,0,1,1,22.21,13.79,10.22,10.22,0,0,1,12,24ZM12,5.39a8.41,8.41,0,1,0,8.41,8.41A8.42,8.42,0,0,0,12,5.39Z"/><path class="cls-1" d="M10.91,9.72A1,1,0,0,1,11.2,9a1.26,1.26,0,0,1,1.59,0,.94.94,0,0,1,.3.72,1,1,0,0,1-.3.73,1.24,1.24,0,0,1-1.58,0A1,1,0,0,1,10.91,9.72ZM13,18.88H11V11.6H13Z"/></svg>